<?xml version="1.0" encoding="UTF-8"?>
<!DOCTYPE svg PUBLIC "-//W3C//DTD SVG 1.1//EN" "http://www.w3.org/Graphics/SVG/1.1/DTD/svg11.dtd">
<svg version="1.1" xmlns="http://www.w3.org/2000/svg" xmlns:xlink="http://www.w3.org/1999/xlink" x="0" y="0" width="1000" height="350" viewBox="0, 0, 1000, 350">
  <g id="Layer_1">
    <path d="M108.64,75.305 C124.473,75.292 139.799,80.118 152.884,88.957 C135.204,109.039 126.811,133.253 126.14,159.805 C126.186,179.441 131.55,198.734 141.704,215.547 C143.318,218.22 145.2,220.723 146.948,223.311 C141.24,226.805 134.934,228.966 128.48,230.574 L107,252.055 L84.348,229.403 C51.13,219.164 30.501,188.342 29.64,154.305 C29.64,110.674 65.01,75.305 108.64,75.305 z" fill="#96FF00"/>
    <path d="M241.14,52.305 C300.511,52.305 348.641,100.434 348.641,159.805 C348.442,197.127 328.865,232.322 296.883,251.741 C288.96,256.553 286.57,257.2 278.033,260.803 L241.14,297.695 L204.248,260.803 C161.057,243.769 134.814,206.215 133.64,159.805 C133.64,100.434 181.77,52.305 241.14,52.305 z" fill="#FA6464"/>
    <g>
      <path d="M375.541,134.794 L410.169,224.583 L421.827,224.583 L455.412,134.794 L444.101,134.794 L416.259,213.621 L415.911,213.621 L387.721,134.794 z" fill="#616264"/>
      <path d="M504.135,141.406 Q511.965,141.406 517.881,144.712 Q523.798,148.019 527.713,153.413 Q531.628,158.807 533.629,165.681 Q535.631,172.554 535.631,179.689 Q535.631,186.823 533.629,193.697 Q531.628,200.57 527.713,205.964 Q523.798,211.359 517.881,214.665 Q511.965,217.971 504.135,217.971 Q496.304,217.971 490.388,214.665 Q484.471,211.359 480.556,205.964 Q476.641,200.57 474.64,193.697 Q472.639,186.823 472.639,179.689 Q472.639,172.554 474.64,165.681 Q476.641,158.807 480.556,153.413 Q484.471,148.019 490.388,144.712 Q496.304,141.406 504.135,141.406 z M504.135,132.184 Q493.868,132.184 485.95,136.012 Q478.033,139.84 472.639,146.279 Q467.244,152.717 464.46,161.33 Q461.676,169.944 461.676,179.689 Q461.676,189.433 464.46,198.047 Q467.244,206.66 472.639,213.099 Q478.033,219.537 485.95,223.278 Q493.868,227.02 504.135,227.02 Q514.401,227.02 522.319,223.278 Q530.236,219.537 535.631,213.099 Q541.025,206.66 543.809,198.047 Q546.593,189.433 546.593,179.689 Q546.593,169.944 543.809,161.33 Q541.025,152.717 535.631,146.279 Q530.236,139.84 522.319,136.012 Q514.401,132.184 504.135,132.184 z" fill="#616264"/>
      <path d="M635.687,224.583 L635.687,134.794 L624.724,134.794 L624.724,181.951 Q624.724,188.737 623.158,195.263 Q621.592,201.788 618.286,206.834 Q614.98,211.881 609.933,214.926 Q604.887,217.971 597.753,217.971 Q584.702,217.971 579.394,211.707 Q574.087,205.442 573.739,193.261 L573.739,134.794 L562.776,134.794 L562.776,193.087 Q562.776,201.092 564.516,207.356 Q566.257,213.621 569.998,217.971 Q573.739,222.321 579.742,224.67 Q585.746,227.02 594.272,227.02 Q604.365,227.02 612.63,222.234 Q620.896,217.449 625.246,208.4 L625.594,208.4 L625.594,224.583 z" fill="#616264"/>
      <path d="M710.164,161.069 L721.126,161.069 Q720.778,153.761 718.168,148.367 Q715.558,142.972 711.121,139.318 Q706.683,135.664 700.854,133.924 Q695.025,132.184 688.238,132.184 Q682.322,132.184 676.318,133.576 Q670.315,134.968 665.443,137.926 Q660.57,140.884 657.525,145.757 Q654.48,150.629 654.48,157.415 Q654.48,163.158 656.394,167.073 Q658.308,170.988 661.701,173.685 Q665.095,176.382 669.619,178.21 Q674.143,180.037 679.538,181.429 L693.632,184.561 Q697.287,185.431 700.854,186.649 Q704.421,187.867 707.205,189.694 Q709.99,191.521 711.643,194.219 Q713.296,196.916 713.296,200.918 Q713.296,205.616 710.947,208.835 Q708.597,212.055 704.943,214.143 Q701.289,216.231 697.026,217.101 Q692.762,217.971 688.76,217.971 Q677.797,217.971 670.402,212.316 Q663.007,206.66 662.31,195.524 L651.348,195.524 Q652.74,212.055 662.572,219.537 Q672.403,227.02 688.238,227.02 Q694.503,227.02 700.941,225.628 Q707.379,224.235 712.513,221.016 Q717.646,217.797 720.952,212.664 Q724.258,207.53 724.258,200.222 Q724.258,194.306 721.996,189.955 Q719.734,185.605 716.167,182.647 Q712.6,179.689 707.988,177.862 Q703.377,176.034 698.679,175.338 L684.062,172.032 Q681.278,171.336 677.971,170.205 Q674.665,169.074 671.881,167.334 Q669.097,165.594 667.27,163.071 Q665.443,160.547 665.443,156.893 Q665.443,152.543 667.357,149.585 Q669.271,146.627 672.403,144.799 Q675.535,142.972 679.277,142.189 Q683.018,141.406 686.672,141.406 Q691.37,141.406 695.547,142.537 Q699.723,143.668 702.942,146.105 Q706.161,148.541 708.075,152.282 Q709.99,156.023 710.164,161.069 z" fill="#616264"/>
      <path d="M804.651,173.424 L746.532,173.424 Q747.228,167.334 749.403,161.505 Q751.578,155.675 755.232,151.238 Q758.887,146.801 764.107,144.103 Q769.327,141.406 776.114,141.406 Q782.726,141.406 787.946,144.103 Q793.167,146.801 796.821,151.238 Q800.475,155.675 802.476,161.417 Q804.477,167.16 804.651,173.424 z M746.532,182.647 L815.614,182.647 Q815.962,173.25 813.874,164.115 Q811.786,154.979 807.001,147.932 Q802.215,140.884 794.559,136.534 Q786.902,132.184 776.114,132.184 Q765.499,132.184 757.755,136.273 Q750.012,140.362 745.14,147.062 Q740.267,153.761 737.918,162.288 Q735.569,170.814 735.569,179.689 Q735.569,189.259 737.918,197.873 Q740.267,206.486 745.14,213.012 Q750.012,219.537 757.755,223.278 Q765.499,227.02 776.114,227.02 Q793.167,227.02 802.476,218.667 Q811.786,210.315 815.266,195.002 L804.303,195.002 Q801.693,205.442 794.907,211.707 Q788.12,217.971 776.114,217.971 Q768.283,217.971 762.715,214.665 Q757.146,211.359 753.492,206.312 Q749.838,201.266 748.185,194.915 Q746.532,188.563 746.532,182.647 z" fill="#616264"/>
      <path d="M830.579,100.34 L830.579,224.583 L841.542,224.583 L841.542,100.34 z" fill="#616264"/>
      <path d="M862.771,100.34 L862.771,224.583 L873.734,224.583 L873.734,100.34 z" fill="#616264"/>
      <path d="M959.347,173.424 L901.228,173.424 Q901.924,167.334 904.099,161.505 Q906.274,155.675 909.928,151.238 Q913.582,146.801 918.803,144.103 Q924.023,141.406 930.809,141.406 Q937.422,141.406 942.642,144.103 Q947.862,146.801 951.517,151.238 Q955.171,155.675 957.172,161.417 Q959.173,167.16 959.347,173.424 z M901.228,182.647 L970.31,182.647 Q970.658,173.25 968.57,164.115 Q966.482,154.979 961.696,147.932 Q956.911,140.884 949.255,136.534 Q941.598,132.184 930.809,132.184 Q920.195,132.184 912.451,136.273 Q904.708,140.362 899.836,147.062 Q894.963,153.761 892.614,162.288 Q890.265,170.814 890.265,179.689 Q890.265,189.259 892.614,197.873 Q894.963,206.486 899.836,213.012 Q904.708,219.537 912.451,223.278 Q920.195,227.02 930.809,227.02 Q947.862,227.02 957.172,218.667 Q966.482,210.315 969.962,195.002 L958.999,195.002 Q956.389,205.442 949.603,211.707 Q942.816,217.971 930.809,217.971 Q922.979,217.971 917.411,214.665 Q911.842,211.359 908.188,206.312 Q904.534,201.266 902.881,194.915 Q901.228,188.563 901.228,182.647 z" fill="#616264"/>
    </g>
  </g>
</svg>
