<?xml version="1.0" encoding="UTF-8"?>
<!DOCTYPE svg PUBLIC "-//W3C//DTD SVG 1.1//EN" "http://www.w3.org/Graphics/SVG/1.1/DTD/svg11.dtd">
<svg version="1.1" xmlns="http://www.w3.org/2000/svg" xmlns:xlink="http://www.w3.org/1999/xlink" x="0" y="0" width="1300" height="246" viewBox="0, 0, 1300, 246">
  <g id="Layer_1">
    <path d="M89.548,23.305 C105.381,23.292 120.706,28.118 133.792,36.957 C116.111,57.039 107.719,81.253 107.048,107.805 C107.094,127.441 112.457,146.734 122.611,163.547 C124.226,166.22 126.107,168.723 127.855,171.311 C122.148,174.805 115.842,176.966 109.388,178.574 L87.907,200.055 L65.256,177.403 C32.037,167.164 11.409,136.342 10.548,102.305 C10.548,58.674 45.918,23.305 89.548,23.305 z" fill="#96FF00"/>
    <path d="M222.048,0.305 C281.419,0.305 329.548,48.434 329.548,107.805 C329.35,145.127 309.772,180.322 277.791,199.741 C269.867,204.553 267.478,205.2 258.94,208.803 L222.048,245.695 L185.156,208.803 C141.965,191.769 115.722,154.215 114.548,107.805 C114.548,48.434 162.678,0.305 222.048,0.305 z" fill="#FA6464"/>
    <path d="M377.428,158.319 Q377.428,162.207 378.436,162.927 Q379.444,163.647 383.62,163.647 L389.524,163.647 L389.524,171.999 Q383.476,173.007 380.02,173.007 Q373.54,173.007 370.516,169.839 Q367.492,166.671 367.492,159.903 L367.492,102.303 L353.956,102.303 L353.956,93.951 L367.492,93.951 L367.492,64.431 L377.428,64.431 L377.428,93.951 L392.98,93.951 L392.98,102.303 L377.428,102.303 z" fill="#96FF04"/>
    <path d="M472.036,145.647 L480.388,149.967 Q468.004,173.007 443.812,173.007 Q426.532,173.007 415.3,161.127 Q404.068,149.247 404.068,132.543 Q404.068,115.839 415.372,103.887 Q426.676,91.935 443.308,91.935 Q459.94,91.935 471.244,103.023 Q482.548,114.111 482.98,133.263 L414.148,133.263 Q414.58,147.087 422.86,155.511 Q431.14,163.935 442.948,163.935 Q462.388,163.935 472.036,145.647 z M472.036,124.767 Q470.02,113.823 461.956,107.631 Q453.892,101.439 443.38,101.439 Q421.78,101.439 415.156,124.767 z" fill="#96FF04"/>
    <path d="M501.268,93.951 L511.204,93.951 L511.204,107.631 Q523.012,91.935 539.86,91.935 Q548.5,91.935 555.412,96.615 Q562.324,101.295 565.204,108.855 Q568.084,116.415 568.084,131.103 L568.084,170.415 L558.292,170.415 L558.292,133.983 Q558.292,120.591 557.068,115.839 Q555.844,111.087 553.324,107.775 Q550.804,104.463 546.916,102.735 Q543.028,101.007 537.484,101.007 Q531.94,101.007 526.612,103.743 Q521.284,106.479 517.54,111.375 Q513.796,116.271 512.5,121.455 Q511.204,126.639 511.204,142.335 L511.204,170.415 L501.268,170.415 z" fill="#96FF04"/>
    <path d="M656.068,93.951 L666.004,93.951 L666.004,152.991 Q666.004,168.687 663.268,176.031 Q660.532,183.375 655.348,188.271 Q650.164,193.167 642.82,195.759 Q635.476,198.351 626.692,198.351 Q596.74,198.351 587.236,174.447 L597.892,174.447 Q606.244,189.423 626.26,189.423 Q635.908,189.423 643.036,185.679 Q650.164,181.935 653.116,176.103 Q656.068,170.271 656.068,157.887 L656.068,154.575 Q650.164,161.919 642.1,165.519 Q634.036,169.119 625.108,169.119 Q608.404,169.119 597.316,157.743 Q586.228,146.367 586.228,130.959 Q586.228,114.975 598.036,103.455 Q609.844,91.935 626.62,91.935 Q643.396,91.935 656.068,107.199 z M656.5,130.959 Q656.5,118.431 648.004,109.935 Q639.508,101.439 626.98,101.439 Q613.732,101.439 604.948,110.583 Q596.164,119.727 596.164,131.535 Q596.164,143.343 604.66,151.623 Q613.156,159.903 626.404,159.903 Q639.652,159.903 648.076,151.839 Q656.5,143.775 656.5,130.959 z" fill="#96FF04"/>
    <path d="M686.02,93.951 L695.812,93.951 L695.812,107.199 Q706.036,91.935 722.02,91.935 Q730.516,91.935 737.212,96.759 Q743.908,101.583 746.212,110.367 Q750.964,101.439 758.308,96.687 Q765.652,91.935 775.228,91.935 Q784.804,91.935 792.58,99.351 Q800.356,106.767 800.356,128.655 L800.356,170.415 L790.276,170.415 L790.276,128.655 Q790.276,118.143 788.98,113.175 Q787.684,108.207 783.364,104.823 Q779.044,101.439 771.916,101.439 Q764.788,101.439 758.596,106.191 Q752.404,110.943 750.1,118.287 Q747.796,125.631 747.796,140.463 L747.796,170.415 L738.148,170.415 L738.148,131.247 Q738.148,119.007 736.852,113.751 Q735.556,108.495 731.092,104.967 Q726.628,101.439 720.148,101.439 Q713.668,101.439 707.98,105.255 Q702.292,109.071 699.052,115.695 Q695.812,122.319 695.812,138.015 L695.812,170.415 L686.02,170.415 z" fill="#96FF04"/>
    <path d="M817.492,132.687 Q817.492,115.839 829.084,103.887 Q840.676,91.935 857.308,91.935 Q873.94,91.935 885.532,103.887 Q897.124,115.839 897.124,132.543 Q897.124,149.247 885.676,161.127 Q874.228,173.007 857.38,173.007 Q840.532,173.007 829.012,161.127 Q817.492,149.247 817.492,132.687 z M887.188,132.831 Q887.188,120.159 878.332,110.871 Q869.476,101.583 857.308,101.583 Q845.14,101.583 836.356,110.871 Q827.572,120.159 827.572,132.975 Q827.572,145.791 836.068,154.719 Q844.564,163.647 857.164,163.647 Q869.764,163.647 878.476,154.647 Q887.188,145.647 887.188,132.831 z" fill="#96FF04"/>
    <g id="1194984778189639209right_foot_print_benji_p_02">
      <path d="M207.986,115.13 C186.612,112.88 190.202,79.726 207.424,70.694 C218.833,64.711 234.237,64.972 244.547,69.007 C264.105,76.66 269.296,86.444 272.109,105.568 C274.921,124.692 265.498,175.281 242.86,180.94 C222.611,186.002 214.796,176.186 216.986,166.878 C219.236,157.316 230.326,144.929 231.048,136.504 C232.735,116.817 207.986,115.13 207.986,115.13 z" fill="#FFFFFF"/>
      <path d="M169.901,68.451 C175.627,76.767 186.491,79.224 194.167,73.939 C201.843,68.654 203.424,57.628 197.698,49.312 C191.973,40.997 181.109,38.54 173.433,43.825 C165.757,49.11 164.176,60.136 169.901,68.451 z" fill="#FFFFFF"/>
      <path d="M214.039,63.214 C218.939,64.048 223.567,60.877 224.375,56.13 C225.184,51.384 222.056,44.249 217.156,43.415 C212.256,42.58 207.628,45.752 206.82,50.498 C206.012,55.245 209.14,62.379 214.039,63.214 z" fill="#FFFFFF"/>
      <path d="M229.93,59.786 C232.704,63.722 236.77,64.479 240.832,61.615 C244.894,58.751 245.85,50.584 243.075,46.648 C240.301,42.713 236.236,41.956 232.173,44.82 C228.111,47.683 227.155,55.851 229.93,59.786 z" fill="#FFFFFF"/>
      <path d="M246.898,62.743 C247.75,66.849 252.016,69.436 256.427,68.52 C260.838,67.605 264.423,61.378 263.571,57.271 C262.718,53.165 258.452,50.578 254.042,51.494 C249.632,52.409 246.046,58.636 246.898,62.743 z" fill="#FFFFFF"/>
      <path d="M264.815,68.623 C262.307,72.364 262.783,77.08 265.88,79.156 C268.976,81.231 273.519,79.881 276.028,76.14 C278.536,72.399 278.059,67.683 274.963,65.607 C271.867,63.531 267.323,64.881 264.815,68.623 z" fill="#FFFFFF"/>
    </g>
    <path d="M919.236,163.647 Q919.236,160.047 921.828,157.527 Q924.42,155.007 927.948,155.007 Q931.476,155.007 933.996,157.527 Q936.516,160.047 936.516,163.719 Q936.516,167.391 933.996,169.911 Q931.476,172.431 927.948,172.431 Q924.42,172.431 921.828,169.839 Q919.236,167.247 919.236,163.647 z" fill="#FA6464"/>
    <path d="M1031.7,109.791 L1023.924,114.687 Q1013.844,101.295 996.276,101.295 Q982.452,101.295 973.092,110.151 Q963.732,119.007 963.732,132.111 Q963.732,145.215 972.948,154.575 Q982.164,163.935 996.276,163.935 Q1013.124,163.935 1023.924,150.543 L1031.7,155.727 Q1025.94,164.079 1016.22,168.543 Q1006.5,173.007 995.268,173.007 Q977.556,173.007 965.676,161.343 Q953.796,149.679 953.796,132.831 Q953.796,115.983 965.82,103.959 Q977.844,91.935 996.708,91.935 Q1007.796,91.935 1017.228,96.687 Q1026.66,101.439 1031.7,109.791 z" fill="#FA6464"/>
    <path d="M1050.132,64.431 L1060.068,64.431 L1060.068,107.631 Q1071.876,91.935 1088.724,91.935 Q1097.364,91.935 1104.276,96.615 Q1111.188,101.295 1114.068,108.855 Q1116.948,116.415 1116.948,131.103 L1116.948,170.415 L1107.012,170.415 L1107.012,133.983 Q1107.012,122.175 1106.292,117.711 Q1105.572,113.247 1103.124,109.215 Q1100.676,105.183 1096.572,103.095 Q1092.468,101.007 1086.636,101.007 Q1080.804,101.007 1075.476,103.743 Q1070.148,106.479 1066.404,111.375 Q1062.66,116.271 1061.364,121.455 Q1060.068,126.639 1060.068,142.335 L1060.068,170.415 L1050.132,170.415 z" fill="#FA6464"/>
    <path d="M1214.148,93.951 L1214.148,170.415 L1204.5,170.415 L1204.5,157.311 Q1191.396,173.007 1174.548,173.007 Q1157.7,173.007 1146.108,160.983 Q1134.516,148.959 1134.516,132.327 Q1134.516,115.695 1146.18,103.815 Q1157.844,91.935 1174.116,91.935 Q1192.836,91.935 1204.5,107.919 L1204.5,93.951 z M1205.076,132.543 Q1205.076,119.439 1196.292,110.439 Q1187.508,101.439 1174.764,101.439 Q1162.02,101.439 1153.236,110.727 Q1144.452,120.015 1144.452,132.687 Q1144.452,145.359 1153.38,154.647 Q1162.308,163.935 1174.764,163.935 Q1187.22,163.935 1196.148,155.007 Q1205.076,146.079 1205.076,132.543 z" fill="#FA6464"/>
    <path d="M1254.9,158.319 Q1254.9,162.207 1255.908,162.927 Q1256.916,163.647 1261.092,163.647 L1266.996,163.647 L1266.996,171.999 Q1260.948,173.007 1257.492,173.007 Q1251.012,173.007 1247.988,169.839 Q1244.964,166.671 1244.964,159.903 L1244.964,102.303 L1231.428,102.303 L1231.428,93.951 L1244.964,93.951 L1244.964,64.431 L1254.9,64.431 L1254.9,93.951 L1270.452,93.951 L1270.452,102.303 L1254.9,102.303 z" fill="#FA6464"/>
  </g>
</svg>
